<svg xmlns="http://www.w3.org/2000/svg" viewBox="0 0 256 256"><path fill="#23282d" d="M0 0h256v256H0z"/><path fill="rgba(255,255,255,.234)" d="m84.088 50.027-35.401.926-17.553 33.24 35.446-1.688 17.508-32.478Zm16.5-1.156-17.577 32.55 41.377-1.18 27.621 45.967-27.837 48.128-55.081 1.695-21.556-35.878-35.672 3.245 39.02 64.936 91.442-1.537 46.927-81.21-46.814-77.92-41.85 1.204Z" opacity=".259"/><path fill="rgba(255,255,255,.188)" d="m97.81 50.027-35.401.926-17.553 33.24 35.446-1.688L97.81 50.027Zm16.5-1.156-17.577 32.55 41.377-1.18 27.621 45.967-27.837 48.128-55.081 1.695-21.556-35.878-35.672 3.245 39.02 64.936 91.442-1.537 46.927-81.21-46.814-77.92-41.85 1.204Z" opacity=".597"/><path fill="#fff" d="m111.531 50.027-35.401.926-17.553 33.24 35.446-1.688 17.508-32.478Zm16.5-1.156-17.577 32.55 41.377-1.18 27.621 45.967-27.837 48.128-55.081 1.695-21.556-35.878-35.672 3.245 39.02 64.936 91.442-1.537 46.927-81.21-46.814-77.92-41.85 1.204Z"/></svg>
