<svg xmlns="http://www.w3.org/2000/svg" viewBox="0 0 1544 500"><path fill="#23282d" d="M0 0h1544v500H0z"/><path fill="rgba(255,255,255,.234)" d="m741.822 159.622-24.329.637-12.063 22.844 24.36-1.16 12.033-22.321Zm11.339-.795-12.08 22.37 28.436-.811 18.983 31.591-19.131 33.076-37.854 1.165-14.815-24.657-24.516 2.23 26.817 44.628 62.844-1.056 32.251-55.812L781.923 158l-28.762.827Z" opacity=".259"/><path fill="rgba(255,255,255,.188)" d="m751.252 159.622-24.329.637-12.063 22.844 24.36-1.16 12.033-22.321Zm11.339-.795-12.08 22.37 28.436-.811 18.983 31.591-19.131 33.076-37.854 1.165-14.815-24.657-24.516 2.23 26.817 44.628 62.844-1.056 32.251-55.812L791.353 158l-28.762.827Z" opacity=".597"/><path fill="#fff" d="m760.682 159.622-24.329.637-12.063 22.844 24.36-1.16 12.033-22.321Zm11.339-.795-12.08 22.37 28.436-.811 18.983 31.591-19.131 33.076-37.854 1.165-14.815-24.657-24.516 2.23 26.817 44.628 62.844-1.056 32.251-55.812L800.783 158l-28.762.827ZM649.658 342c-4.14 0-7.395-1.185-9.764-3.555-2.37-2.37-3.555-5.834-3.555-10.395v-17.908h4.5v17.729c0 3.51.772 6.074 2.317 7.694 1.544 1.62 3.727 2.43 6.547 2.43 2.85 0 5.046-.81 6.592-2.43 1.544-1.62 2.317-4.185 2.317-7.694v-17.729h4.365v17.908c0 4.561-1.178 8.024-3.532 10.395-2.355 2.37-5.618 3.555-9.787 3.555Zm22.542-.36v-31.497h4.5v31.497h-4.5Zm13.319 0v-33.387h4.319v33.387h-4.319Zm3.51-5.76.09-5.534 13.724-12.554h5.22l-10.529 10.349-2.34 1.98-6.164 5.759Zm14.713 5.76-9.359-11.609 2.79-3.464 11.879 15.073h-5.31Zm11.654-28.438c-.84 0-1.538-.27-2.092-.81a2.656 2.656 0 0 1-.833-1.98c0-.81.277-1.484.833-2.024.555-.54 1.252-.81 2.092-.81s1.537.263 2.092.787c.555.525.833 1.178.833 1.957 0 .811-.27 1.493-.81 2.048-.54.556-1.245.832-2.115.832Zm-2.159 28.438v-23.848h4.319v23.848h-4.319Zm9.133-20.293v-3.555h15.208v3.555H722.37Zm11.609 20.562c-2.4 0-4.26-.645-5.579-1.935-1.321-1.289-1.98-3.134-1.98-5.534v-21.868h4.319v21.688c0 1.29.322 2.279.968 2.97.645.69 1.567 1.034 2.767 1.034 1.35 0 2.475-.374 3.375-1.125l1.35 3.105c-.66.57-1.448.989-2.362 1.26-.916.27-1.867.404-2.857.404Zm21.867-.269v-31.497h15.388c3.96 0 6.937.75 8.932 2.25s2.992 3.479 2.992 5.939c0 1.649-.404 3.082-1.215 4.297-.81 1.215-1.92 2.152-3.329 2.812-1.411.66-3.03.989-4.86.989l.855-1.845c1.979 0 3.734.323 5.265.968 1.529.646 2.722 1.598 3.577 2.857.854 1.26 1.282 2.805 1.282 4.635 0 2.699-1.065 4.807-3.195 6.321-2.13 1.516-5.264 2.272-9.403 2.272h-16.289Zm7.245-5.49h8.504c1.89 0 3.321-.308 4.297-.923.975-.614 1.462-1.597 1.462-2.947 0-1.319-.487-2.302-1.462-2.947-.976-.645-2.407-.967-4.297-.967h-9.044v-5.31h7.784c1.77 0 3.127-.308 4.072-.923.945-.614 1.418-1.552 1.418-2.812 0-1.229-.473-2.151-1.418-2.767-.944-.614-2.302-.923-4.072-.923h-7.244v20.519Zm26.682 5.49v-33.387h7.02v33.387h-7.02Zm25.062.36c-2.58 0-4.867-.54-6.862-1.62s-3.57-2.558-4.725-4.433c-1.155-1.874-1.732-4.012-1.732-6.411 0-2.43.577-4.582 1.732-6.457 1.154-1.875 2.729-3.345 4.725-4.41 1.995-1.064 4.282-1.597 6.862-1.597 2.549 0 4.829.532 6.839 1.597 2.01 1.065 3.585 2.528 4.725 4.388 1.14 1.86 1.71 4.02 1.71 6.479 0 2.399-.57 4.537-1.71 6.411-1.14 1.875-2.715 3.353-4.725 4.433s-4.29 1.62-6.839 1.62Zm0-5.76c1.17 0 2.22-.271 3.149-.81.93-.54 1.665-1.312 2.205-2.317s.81-2.197.81-3.577c0-1.41-.27-2.61-.81-3.6-.54-.99-1.275-1.755-2.205-2.295s-1.979-.811-3.149-.811-2.221.271-3.149.811c-.931.54-1.673 1.305-2.228 2.295-.556.989-.833 2.189-.833 3.6 0 1.38.277 2.572.833 3.577.555 1.005 1.297 1.777 2.228 2.317.929.539 1.979.81 3.149.81Zm29.653 5.76c-2.609 0-4.935-.532-6.975-1.598-2.04-1.064-3.638-2.542-4.792-4.433-1.155-1.89-1.732-4.034-1.732-6.434 0-2.43.577-4.582 1.732-6.457 1.154-1.875 2.752-3.345 4.792-4.41 2.04-1.064 4.365-1.597 6.975-1.597 2.55 0 4.77.532 6.659 1.597 1.89 1.065 3.285 2.588 4.185 4.567l-5.444 2.925c-.63-1.14-1.417-1.979-2.362-2.52a6.106 6.106 0 0 0-3.082-.811c-1.2 0-2.28.271-3.239.811a5.851 5.851 0 0 0-2.272 2.295c-.556.989-.833 2.189-.833 3.6s.277 2.609.833 3.6a5.871 5.871 0 0 0 2.272 2.295c.959.539 2.039.81 3.239.81a6.251 6.251 0 0 0 3.082-.787c.945-.524 1.732-1.373 2.362-2.543l5.444 2.97c-.899 1.95-2.295 3.458-4.185 4.522-1.89 1.065-4.109 1.598-6.659 1.598Zm14.712-.36v-33.387h7.02v33.387h-7.02Zm5.805-4.949.181-8.55 11.294-10.709h8.369l-10.845 11.024-3.645 2.97-5.354 5.265Zm12.239 4.949-8.189-10.169 4.409-5.444 12.284 15.613h-8.504Zm18.988.36c-2.069 0-4.058-.248-5.962-.743-1.905-.494-3.412-1.117-4.521-1.867l2.339-5.039c1.11.69 2.423 1.253 3.938 1.688s3.007.652 4.478.652c1.619 0 2.767-.195 3.441-.585.676-.39 1.013-.93 1.013-1.62 0-.569-.263-.997-.787-1.282-.525-.285-1.223-.502-2.093-.652s-1.822-.3-2.857-.45c-1.034-.149-2.077-.353-3.127-.607s-2.01-.637-2.88-1.147a5.882 5.882 0 0 1-2.092-2.069c-.525-.87-.788-1.995-.788-3.375 0-1.53.442-2.88 1.328-4.05.884-1.17 2.167-2.092 3.847-2.768 1.68-.675 3.689-1.012 6.029-1.012 1.649 0 3.33.18 5.04.54 1.71.359 3.134.885 4.274 1.574l-2.34 4.995c-1.17-.69-2.348-1.162-3.532-1.418a16.425 16.425 0 0 0-3.442-.382c-1.56 0-2.699.21-3.419.63-.721.42-1.08.96-1.08 1.619 0 .601.262 1.051.787 1.351.524.3 1.222.54 2.093.72.869.18 1.822.337 2.856.473a26.16 26.16 0 0 1 3.128.607c1.05.27 2.002.652 2.856 1.147.855.494 1.553 1.17 2.093 2.024s.81 1.973.81 3.353c0 1.5-.449 2.827-1.35 3.981-.899 1.155-2.197 2.063-3.892 2.723-1.695.659-3.758.99-6.188.99Z"/></svg>
